<mxfile host="app.diagrams.net" agent="Mozilla/5.0 (Windows NT 10.0; Win64; x64) AppleWebKit/537.36 (KHTML, like Gecko) Chrome/118.0.0.0 Safari/537.36" version="28.0.5">
  <diagram name="第 1 页" id="B0CTnErVgj8-p_2Ik8TZ">
    <mxGraphModel dx="1206" dy="526" grid="1" gridSize="10" guides="1" tooltips="1" connect="1" arrows="1" fold="1" page="1" pageScale="1" pageWidth="827" pageHeight="1169" math="0" shadow="0">
      <root>
        <mxCell id="0" />
        <mxCell id="1" parent="0" />
        <mxCell id="CV16CJgjCQMdgXZ5vd4G-21" value="&lt;b&gt;三叉树&lt;/b&gt;" style="text;strokeColor=none;align=center;fillColor=none;html=1;verticalAlign=middle;whiteSpace=wrap;rounded=0;" vertex="1" parent="1">
          <mxGeometry x="380" y="80" width="52.59" height="20" as="geometry" />
        </mxCell>
        <mxCell id="CV16CJgjCQMdgXZ5vd4G-22" value="&lt;div style=&quot;text-align: left;&quot;&gt;&lt;b style=&quot;background-color: transparent;&quot;&gt;1、删除叶子节点（无子节点）&lt;/b&gt;&lt;/div&gt;" style="text;strokeColor=none;align=center;fillColor=none;html=1;verticalAlign=middle;whiteSpace=wrap;rounded=0;" vertex="1" parent="1">
          <mxGeometry x="160" y="585" width="170" height="25" as="geometry" />
        </mxCell>
        <mxCell id="CV16CJgjCQMdgXZ5vd4G-45" value="C" style="group" vertex="1" connectable="0" parent="1">
          <mxGeometry x="151" y="110" width="524.8181818181818" height="374.8181818181818" as="geometry" />
        </mxCell>
        <mxCell id="CV16CJgjCQMdgXZ5vd4G-2" value="E" style="ellipse;whiteSpace=wrap;html=1;aspect=fixed;fillColor=#99FF33;" vertex="1" parent="CV16CJgjCQMdgXZ5vd4G-45">
          <mxGeometry y="310" width="64.81818181818181" height="64.81818181818181" as="geometry" />
        </mxCell>
        <mxCell id="CV16CJgjCQMdgXZ5vd4G-3" value="" style="endArrow=none;html=1;rounded=0;entryX=0.224;entryY=0.915;entryDx=0;entryDy=0;entryPerimeter=0;exitX=0.607;exitY=0.016;exitDx=0;exitDy=0;exitPerimeter=0;" edge="1" parent="CV16CJgjCQMdgXZ5vd4G-45" source="CV16CJgjCQMdgXZ5vd4G-2" target="CV16CJgjCQMdgXZ5vd4G-7">
          <mxGeometry width="50" height="50" relative="1" as="geometry">
            <mxPoint x="26" y="310" as="sourcePoint" />
            <mxPoint x="85.99999999999994" y="219" as="targetPoint" />
          </mxGeometry>
        </mxCell>
        <mxCell id="CV16CJgjCQMdgXZ5vd4G-4" value="C" style="ellipse;whiteSpace=wrap;html=1;aspect=fixed;fillColor=#CCFF99;" vertex="1" parent="CV16CJgjCQMdgXZ5vd4G-45">
          <mxGeometry x="224.99999999999994" y="160" width="64.81818181818181" height="64.81818181818181" as="geometry" />
        </mxCell>
        <mxCell id="CV16CJgjCQMdgXZ5vd4G-5" value="" style="endArrow=none;html=1;rounded=0;entryX=0.72;entryY=0.953;entryDx=0;entryDy=0;entryPerimeter=0;exitX=0.257;exitY=0.063;exitDx=0;exitDy=0;exitPerimeter=0;" edge="1" parent="CV16CJgjCQMdgXZ5vd4G-45" source="CV16CJgjCQMdgXZ5vd4G-8" target="CV16CJgjCQMdgXZ5vd4G-6">
          <mxGeometry width="50" height="50" relative="1" as="geometry">
            <mxPoint x="281.9971428571427" y="158" as="sourcePoint" />
            <mxPoint x="211.9971428571427" y="65" as="targetPoint" />
          </mxGeometry>
        </mxCell>
        <mxCell id="CV16CJgjCQMdgXZ5vd4G-6" value="A" style="ellipse;whiteSpace=wrap;html=1;aspect=fixed;fillColor=#E6FFCC;" vertex="1" parent="CV16CJgjCQMdgXZ5vd4G-45">
          <mxGeometry x="224.99999999999994" width="64.81818181818181" height="64.81818181818181" as="geometry" />
        </mxCell>
        <mxCell id="CV16CJgjCQMdgXZ5vd4G-7" value="B" style="ellipse;whiteSpace=wrap;html=1;aspect=fixed;fillColor=#CCFF99;" vertex="1" parent="CV16CJgjCQMdgXZ5vd4G-45">
          <mxGeometry x="75.99999999999994" y="160" width="64.81818181818181" height="64.81818181818181" as="geometry" />
        </mxCell>
        <mxCell id="CV16CJgjCQMdgXZ5vd4G-8" value="D" style="ellipse;whiteSpace=wrap;html=1;aspect=fixed;fillColor=#CCFF99;" vertex="1" parent="CV16CJgjCQMdgXZ5vd4G-45">
          <mxGeometry x="379.9999999999998" y="160" width="64.81818181818181" height="64.81818181818181" as="geometry" />
        </mxCell>
        <mxCell id="CV16CJgjCQMdgXZ5vd4G-9" value="" style="endArrow=none;html=1;rounded=0;entryX=0.256;entryY=0.943;entryDx=0;entryDy=0;entryPerimeter=0;exitX=0.81;exitY=0.098;exitDx=0;exitDy=0;exitPerimeter=0;" edge="1" parent="CV16CJgjCQMdgXZ5vd4G-45" source="CV16CJgjCQMdgXZ5vd4G-7" target="CV16CJgjCQMdgXZ5vd4G-6">
          <mxGeometry width="50" height="50" relative="1" as="geometry">
            <mxPoint x="116.99714285714282" y="160" as="sourcePoint" />
            <mxPoint x="161.99714285714282" y="70" as="targetPoint" />
          </mxGeometry>
        </mxCell>
        <mxCell id="CV16CJgjCQMdgXZ5vd4G-10" value="" style="endArrow=none;html=1;rounded=0;entryX=0.5;entryY=1;entryDx=0;entryDy=0;exitX=0.5;exitY=0;exitDx=0;exitDy=0;" edge="1" parent="CV16CJgjCQMdgXZ5vd4G-45" source="CV16CJgjCQMdgXZ5vd4G-4" target="CV16CJgjCQMdgXZ5vd4G-6">
          <mxGeometry width="50" height="50" relative="1" as="geometry">
            <mxPoint x="161.99999999999994" y="191" as="sourcePoint" />
            <mxPoint x="220.99999999999994" y="100" as="targetPoint" />
          </mxGeometry>
        </mxCell>
        <mxCell id="CV16CJgjCQMdgXZ5vd4G-11" value="F" style="ellipse;whiteSpace=wrap;html=1;aspect=fixed;fillColor=#99FF33;" vertex="1" parent="CV16CJgjCQMdgXZ5vd4G-45">
          <mxGeometry x="75.99999999999994" y="310" width="64.81818181818181" height="64.81818181818181" as="geometry" />
        </mxCell>
        <mxCell id="CV16CJgjCQMdgXZ5vd4G-12" value="" style="endArrow=none;html=1;rounded=0;entryX=0.5;entryY=1;entryDx=0;entryDy=0;exitX=0.5;exitY=0;exitDx=0;exitDy=0;" edge="1" parent="CV16CJgjCQMdgXZ5vd4G-45" source="CV16CJgjCQMdgXZ5vd4G-11" target="CV16CJgjCQMdgXZ5vd4G-7">
          <mxGeometry width="50" height="50" relative="1" as="geometry">
            <mxPoint x="108.20999999999998" y="310" as="sourcePoint" />
            <mxPoint x="108.20999999999998" y="225" as="targetPoint" />
          </mxGeometry>
        </mxCell>
        <mxCell id="CV16CJgjCQMdgXZ5vd4G-13" value="" style="endArrow=none;html=1;rounded=0;entryX=0.768;entryY=0.919;entryDx=0;entryDy=0;entryPerimeter=0;exitX=0.351;exitY=0.022;exitDx=0;exitDy=0;exitPerimeter=0;" edge="1" parent="CV16CJgjCQMdgXZ5vd4G-45" source="CV16CJgjCQMdgXZ5vd4G-14" target="CV16CJgjCQMdgXZ5vd4G-7">
          <mxGeometry width="50" height="50" relative="1" as="geometry">
            <mxPoint x="188.41000000000003" y="310" as="sourcePoint" />
            <mxPoint x="127.41000000000003" y="221" as="targetPoint" />
          </mxGeometry>
        </mxCell>
        <mxCell id="CV16CJgjCQMdgXZ5vd4G-14" value="G" style="ellipse;whiteSpace=wrap;html=1;aspect=fixed;fillColor=#99FF33;" vertex="1" parent="CV16CJgjCQMdgXZ5vd4G-45">
          <mxGeometry x="150.18000000000006" y="310" width="64.81818181818181" height="64.81818181818181" as="geometry" />
        </mxCell>
        <mxCell id="CV16CJgjCQMdgXZ5vd4G-15" value="I" style="ellipse;whiteSpace=wrap;html=1;aspect=fixed;fillColor=#99FF33;" vertex="1" parent="CV16CJgjCQMdgXZ5vd4G-45">
          <mxGeometry x="299.99999999999994" y="310" width="64.81818181818181" height="64.81818181818181" as="geometry" />
        </mxCell>
        <mxCell id="CV16CJgjCQMdgXZ5vd4G-16" value="J" style="ellipse;whiteSpace=wrap;html=1;aspect=fixed;fillColor=#99FF33;" vertex="1" parent="CV16CJgjCQMdgXZ5vd4G-45">
          <mxGeometry x="380" y="310" width="64.81818181818181" height="64.81818181818181" as="geometry" />
        </mxCell>
        <mxCell id="CV16CJgjCQMdgXZ5vd4G-17" value="K" style="ellipse;whiteSpace=wrap;html=1;aspect=fixed;fillColor=#99FF33;" vertex="1" parent="CV16CJgjCQMdgXZ5vd4G-45">
          <mxGeometry x="460" y="310" width="64.81818181818181" height="64.81818181818181" as="geometry" />
        </mxCell>
        <mxCell id="CV16CJgjCQMdgXZ5vd4G-18" value="" style="endArrow=none;html=1;rounded=0;entryX=0.5;entryY=1;entryDx=0;entryDy=0;exitX=0.5;exitY=0;exitDx=0;exitDy=0;" edge="1" parent="CV16CJgjCQMdgXZ5vd4G-45" source="CV16CJgjCQMdgXZ5vd4G-16" target="CV16CJgjCQMdgXZ5vd4G-8">
          <mxGeometry width="50" height="50" relative="1" as="geometry">
            <mxPoint x="368.12" y="310" as="sourcePoint" />
            <mxPoint x="368.12" y="225" as="targetPoint" />
          </mxGeometry>
        </mxCell>
        <mxCell id="CV16CJgjCQMdgXZ5vd4G-19" value="" style="endArrow=none;html=1;rounded=0;entryX=0.837;entryY=0.862;entryDx=0;entryDy=0;entryPerimeter=0;exitX=0.454;exitY=0.006;exitDx=0;exitDy=0;exitPerimeter=0;" edge="1" parent="CV16CJgjCQMdgXZ5vd4G-45" source="CV16CJgjCQMdgXZ5vd4G-17" target="CV16CJgjCQMdgXZ5vd4G-8">
          <mxGeometry width="50" height="50" relative="1" as="geometry">
            <mxPoint x="455" y="310" as="sourcePoint" />
            <mxPoint x="396" y="219" as="targetPoint" />
          </mxGeometry>
        </mxCell>
        <mxCell id="CV16CJgjCQMdgXZ5vd4G-20" value="" style="endArrow=none;html=1;rounded=0;entryX=0.178;entryY=0.872;entryDx=0;entryDy=0;entryPerimeter=0;exitX=0.512;exitY=0.004;exitDx=0;exitDy=0;exitPerimeter=0;" edge="1" parent="CV16CJgjCQMdgXZ5vd4G-45" source="CV16CJgjCQMdgXZ5vd4G-15" target="CV16CJgjCQMdgXZ5vd4G-8">
          <mxGeometry width="50" height="50" relative="1" as="geometry">
            <mxPoint x="280" y="310" as="sourcePoint" />
            <mxPoint x="346" y="218" as="targetPoint" />
          </mxGeometry>
        </mxCell>
        <mxCell id="CV16CJgjCQMdgXZ5vd4G-43" value="H" style="ellipse;whiteSpace=wrap;html=1;aspect=fixed;fillColor=#99FF33;" vertex="1" parent="CV16CJgjCQMdgXZ5vd4G-45">
          <mxGeometry x="225" y="310" width="64.81818181818181" height="64.81818181818181" as="geometry" />
        </mxCell>
        <mxCell id="CV16CJgjCQMdgXZ5vd4G-44" value="" style="endArrow=none;html=1;rounded=0;entryX=0.5;entryY=1;entryDx=0;entryDy=0;exitX=0.5;exitY=0;exitDx=0;exitDy=0;" edge="1" parent="CV16CJgjCQMdgXZ5vd4G-45" source="CV16CJgjCQMdgXZ5vd4G-43" target="CV16CJgjCQMdgXZ5vd4G-4">
          <mxGeometry width="50" height="50" relative="1" as="geometry">
            <mxPoint x="257.24" y="309.82" as="sourcePoint" />
            <mxPoint x="257.24" y="224.82" as="targetPoint" />
          </mxGeometry>
        </mxCell>
        <mxCell id="CV16CJgjCQMdgXZ5vd4G-47" value="C" style="group" vertex="1" connectable="0" parent="1">
          <mxGeometry x="151" y="610" width="524.8181818181818" height="374.8181818181818" as="geometry" />
        </mxCell>
        <mxCell id="CV16CJgjCQMdgXZ5vd4G-50" value="C" style="ellipse;whiteSpace=wrap;html=1;aspect=fixed;fillColor=#CCFF99;" vertex="1" parent="CV16CJgjCQMdgXZ5vd4G-47">
          <mxGeometry x="224.99999999999994" y="160" width="64.81818181818181" height="64.81818181818181" as="geometry" />
        </mxCell>
        <mxCell id="CV16CJgjCQMdgXZ5vd4G-51" value="" style="endArrow=none;html=1;rounded=0;entryX=0.72;entryY=0.953;entryDx=0;entryDy=0;entryPerimeter=0;exitX=0.257;exitY=0.063;exitDx=0;exitDy=0;exitPerimeter=0;" edge="1" parent="CV16CJgjCQMdgXZ5vd4G-47" source="CV16CJgjCQMdgXZ5vd4G-54" target="CV16CJgjCQMdgXZ5vd4G-52">
          <mxGeometry width="50" height="50" relative="1" as="geometry">
            <mxPoint x="281.9971428571427" y="158" as="sourcePoint" />
            <mxPoint x="211.9971428571427" y="65" as="targetPoint" />
          </mxGeometry>
        </mxCell>
        <mxCell id="CV16CJgjCQMdgXZ5vd4G-52" value="A" style="ellipse;whiteSpace=wrap;html=1;aspect=fixed;fillColor=#E6FFCC;" vertex="1" parent="CV16CJgjCQMdgXZ5vd4G-47">
          <mxGeometry x="224.99999999999994" width="64.81818181818181" height="64.81818181818181" as="geometry" />
        </mxCell>
        <mxCell id="CV16CJgjCQMdgXZ5vd4G-53" value="B" style="ellipse;whiteSpace=wrap;html=1;aspect=fixed;fillColor=#CCFF99;" vertex="1" parent="CV16CJgjCQMdgXZ5vd4G-47">
          <mxGeometry x="75.99999999999994" y="160" width="64.81818181818181" height="64.81818181818181" as="geometry" />
        </mxCell>
        <mxCell id="CV16CJgjCQMdgXZ5vd4G-54" value="D" style="ellipse;whiteSpace=wrap;html=1;aspect=fixed;fillColor=#CCFF99;" vertex="1" parent="CV16CJgjCQMdgXZ5vd4G-47">
          <mxGeometry x="379.9999999999998" y="160" width="64.81818181818181" height="64.81818181818181" as="geometry" />
        </mxCell>
        <mxCell id="CV16CJgjCQMdgXZ5vd4G-55" value="" style="endArrow=none;html=1;rounded=0;entryX=0.256;entryY=0.943;entryDx=0;entryDy=0;entryPerimeter=0;exitX=0.81;exitY=0.098;exitDx=0;exitDy=0;exitPerimeter=0;" edge="1" parent="CV16CJgjCQMdgXZ5vd4G-47" source="CV16CJgjCQMdgXZ5vd4G-53" target="CV16CJgjCQMdgXZ5vd4G-52">
          <mxGeometry width="50" height="50" relative="1" as="geometry">
            <mxPoint x="116.99714285714282" y="160" as="sourcePoint" />
            <mxPoint x="161.99714285714282" y="70" as="targetPoint" />
          </mxGeometry>
        </mxCell>
        <mxCell id="CV16CJgjCQMdgXZ5vd4G-56" value="" style="endArrow=none;html=1;rounded=0;entryX=0.5;entryY=1;entryDx=0;entryDy=0;exitX=0.5;exitY=0;exitDx=0;exitDy=0;" edge="1" parent="CV16CJgjCQMdgXZ5vd4G-47" source="CV16CJgjCQMdgXZ5vd4G-50" target="CV16CJgjCQMdgXZ5vd4G-52">
          <mxGeometry width="50" height="50" relative="1" as="geometry">
            <mxPoint x="161.99999999999994" y="191" as="sourcePoint" />
            <mxPoint x="220.99999999999994" y="100" as="targetPoint" />
          </mxGeometry>
        </mxCell>
        <mxCell id="CV16CJgjCQMdgXZ5vd4G-57" value="F" style="ellipse;whiteSpace=wrap;html=1;aspect=fixed;fillColor=#99FF33;" vertex="1" parent="CV16CJgjCQMdgXZ5vd4G-47">
          <mxGeometry x="75.99999999999994" y="310" width="64.81818181818181" height="64.81818181818181" as="geometry" />
        </mxCell>
        <mxCell id="CV16CJgjCQMdgXZ5vd4G-58" value="" style="endArrow=none;html=1;rounded=0;entryX=0.5;entryY=1;entryDx=0;entryDy=0;exitX=0.5;exitY=0;exitDx=0;exitDy=0;" edge="1" parent="CV16CJgjCQMdgXZ5vd4G-47" source="CV16CJgjCQMdgXZ5vd4G-57" target="CV16CJgjCQMdgXZ5vd4G-53">
          <mxGeometry width="50" height="50" relative="1" as="geometry">
            <mxPoint x="108.20999999999998" y="310" as="sourcePoint" />
            <mxPoint x="108.20999999999998" y="225" as="targetPoint" />
          </mxGeometry>
        </mxCell>
        <mxCell id="CV16CJgjCQMdgXZ5vd4G-59" value="" style="endArrow=none;html=1;rounded=0;entryX=0.768;entryY=0.919;entryDx=0;entryDy=0;entryPerimeter=0;exitX=0.351;exitY=0.022;exitDx=0;exitDy=0;exitPerimeter=0;" edge="1" parent="CV16CJgjCQMdgXZ5vd4G-47" source="CV16CJgjCQMdgXZ5vd4G-60" target="CV16CJgjCQMdgXZ5vd4G-53">
          <mxGeometry width="50" height="50" relative="1" as="geometry">
            <mxPoint x="188.41000000000003" y="310" as="sourcePoint" />
            <mxPoint x="127.41000000000003" y="221" as="targetPoint" />
          </mxGeometry>
        </mxCell>
        <mxCell id="CV16CJgjCQMdgXZ5vd4G-60" value="G" style="ellipse;whiteSpace=wrap;html=1;aspect=fixed;fillColor=#99FF33;" vertex="1" parent="CV16CJgjCQMdgXZ5vd4G-47">
          <mxGeometry x="150.18000000000006" y="310" width="64.81818181818181" height="64.81818181818181" as="geometry" />
        </mxCell>
        <mxCell id="CV16CJgjCQMdgXZ5vd4G-61" value="I" style="ellipse;whiteSpace=wrap;html=1;aspect=fixed;fillColor=#99FF33;" vertex="1" parent="CV16CJgjCQMdgXZ5vd4G-47">
          <mxGeometry x="299.99999999999994" y="310" width="64.81818181818181" height="64.81818181818181" as="geometry" />
        </mxCell>
        <mxCell id="CV16CJgjCQMdgXZ5vd4G-62" value="J" style="ellipse;whiteSpace=wrap;html=1;aspect=fixed;fillColor=#99FF33;" vertex="1" parent="CV16CJgjCQMdgXZ5vd4G-47">
          <mxGeometry x="380" y="310" width="64.81818181818181" height="64.81818181818181" as="geometry" />
        </mxCell>
        <mxCell id="CV16CJgjCQMdgXZ5vd4G-63" value="K" style="ellipse;whiteSpace=wrap;html=1;aspect=fixed;fillColor=#99FF33;" vertex="1" parent="CV16CJgjCQMdgXZ5vd4G-47">
          <mxGeometry x="460" y="310" width="64.81818181818181" height="64.81818181818181" as="geometry" />
        </mxCell>
        <mxCell id="CV16CJgjCQMdgXZ5vd4G-64" value="" style="endArrow=none;html=1;rounded=0;entryX=0.5;entryY=1;entryDx=0;entryDy=0;exitX=0.5;exitY=0;exitDx=0;exitDy=0;" edge="1" parent="CV16CJgjCQMdgXZ5vd4G-47" source="CV16CJgjCQMdgXZ5vd4G-62" target="CV16CJgjCQMdgXZ5vd4G-54">
          <mxGeometry width="50" height="50" relative="1" as="geometry">
            <mxPoint x="368.12" y="310" as="sourcePoint" />
            <mxPoint x="368.12" y="225" as="targetPoint" />
          </mxGeometry>
        </mxCell>
        <mxCell id="CV16CJgjCQMdgXZ5vd4G-65" value="" style="endArrow=none;html=1;rounded=0;entryX=0.837;entryY=0.862;entryDx=0;entryDy=0;entryPerimeter=0;exitX=0.454;exitY=0.006;exitDx=0;exitDy=0;exitPerimeter=0;" edge="1" parent="CV16CJgjCQMdgXZ5vd4G-47" source="CV16CJgjCQMdgXZ5vd4G-63" target="CV16CJgjCQMdgXZ5vd4G-54">
          <mxGeometry width="50" height="50" relative="1" as="geometry">
            <mxPoint x="455" y="310" as="sourcePoint" />
            <mxPoint x="396" y="219" as="targetPoint" />
          </mxGeometry>
        </mxCell>
        <mxCell id="CV16CJgjCQMdgXZ5vd4G-66" value="" style="endArrow=none;html=1;rounded=0;entryX=0.178;entryY=0.872;entryDx=0;entryDy=0;entryPerimeter=0;exitX=0.512;exitY=0.004;exitDx=0;exitDy=0;exitPerimeter=0;" edge="1" parent="CV16CJgjCQMdgXZ5vd4G-47" source="CV16CJgjCQMdgXZ5vd4G-61" target="CV16CJgjCQMdgXZ5vd4G-54">
          <mxGeometry width="50" height="50" relative="1" as="geometry">
            <mxPoint x="280" y="310" as="sourcePoint" />
            <mxPoint x="346" y="218" as="targetPoint" />
          </mxGeometry>
        </mxCell>
        <mxCell id="CV16CJgjCQMdgXZ5vd4G-67" value="H" style="ellipse;whiteSpace=wrap;html=1;aspect=fixed;fillColor=#99FF33;" vertex="1" parent="CV16CJgjCQMdgXZ5vd4G-47">
          <mxGeometry x="225" y="310" width="64.81818181818181" height="64.81818181818181" as="geometry" />
        </mxCell>
        <mxCell id="CV16CJgjCQMdgXZ5vd4G-68" value="" style="endArrow=none;html=1;rounded=0;entryX=0.5;entryY=1;entryDx=0;entryDy=0;exitX=0.5;exitY=0;exitDx=0;exitDy=0;" edge="1" parent="CV16CJgjCQMdgXZ5vd4G-47" source="CV16CJgjCQMdgXZ5vd4G-67" target="CV16CJgjCQMdgXZ5vd4G-50">
          <mxGeometry width="50" height="50" relative="1" as="geometry">
            <mxPoint x="257.24" y="309.82" as="sourcePoint" />
            <mxPoint x="257.24" y="224.82" as="targetPoint" />
          </mxGeometry>
        </mxCell>
        <mxCell id="CV16CJgjCQMdgXZ5vd4G-70" value="C" style="group" vertex="1" connectable="0" parent="1">
          <mxGeometry x="151" y="1250" width="524.8181818181818" height="374.8181818181818" as="geometry" />
        </mxCell>
        <mxCell id="CV16CJgjCQMdgXZ5vd4G-71" value="E" style="ellipse;whiteSpace=wrap;html=1;aspect=fixed;fillColor=#99FF33;" vertex="1" parent="CV16CJgjCQMdgXZ5vd4G-70">
          <mxGeometry y="310" width="64.81818181818181" height="64.81818181818181" as="geometry" />
        </mxCell>
        <mxCell id="CV16CJgjCQMdgXZ5vd4G-72" value="" style="endArrow=none;html=1;rounded=0;entryX=0.224;entryY=0.915;entryDx=0;entryDy=0;entryPerimeter=0;exitX=0.607;exitY=0.016;exitDx=0;exitDy=0;exitPerimeter=0;" edge="1" parent="CV16CJgjCQMdgXZ5vd4G-70" source="CV16CJgjCQMdgXZ5vd4G-71" target="CV16CJgjCQMdgXZ5vd4G-76">
          <mxGeometry width="50" height="50" relative="1" as="geometry">
            <mxPoint x="26" y="310" as="sourcePoint" />
            <mxPoint x="85.99999999999994" y="219" as="targetPoint" />
          </mxGeometry>
        </mxCell>
        <mxCell id="CV16CJgjCQMdgXZ5vd4G-73" value="H" style="ellipse;whiteSpace=wrap;html=1;aspect=fixed;fillColor=#CCFF99;" vertex="1" parent="CV16CJgjCQMdgXZ5vd4G-70">
          <mxGeometry x="224.99999999999994" y="160" width="64.81818181818181" height="64.81818181818181" as="geometry" />
        </mxCell>
        <mxCell id="CV16CJgjCQMdgXZ5vd4G-74" value="" style="endArrow=none;html=1;rounded=0;entryX=0.72;entryY=0.953;entryDx=0;entryDy=0;entryPerimeter=0;exitX=0.257;exitY=0.063;exitDx=0;exitDy=0;exitPerimeter=0;" edge="1" parent="CV16CJgjCQMdgXZ5vd4G-70" source="CV16CJgjCQMdgXZ5vd4G-77" target="CV16CJgjCQMdgXZ5vd4G-75">
          <mxGeometry width="50" height="50" relative="1" as="geometry">
            <mxPoint x="281.9971428571427" y="158" as="sourcePoint" />
            <mxPoint x="211.9971428571427" y="65" as="targetPoint" />
          </mxGeometry>
        </mxCell>
        <mxCell id="CV16CJgjCQMdgXZ5vd4G-75" value="A" style="ellipse;whiteSpace=wrap;html=1;aspect=fixed;fillColor=#E6FFCC;" vertex="1" parent="CV16CJgjCQMdgXZ5vd4G-70">
          <mxGeometry x="224.99999999999994" width="64.81818181818181" height="64.81818181818181" as="geometry" />
        </mxCell>
        <mxCell id="CV16CJgjCQMdgXZ5vd4G-76" value="B" style="ellipse;whiteSpace=wrap;html=1;aspect=fixed;fillColor=#CCFF99;" vertex="1" parent="CV16CJgjCQMdgXZ5vd4G-70">
          <mxGeometry x="75.99999999999994" y="160" width="64.81818181818181" height="64.81818181818181" as="geometry" />
        </mxCell>
        <mxCell id="CV16CJgjCQMdgXZ5vd4G-77" value="D" style="ellipse;whiteSpace=wrap;html=1;aspect=fixed;fillColor=#CCFF99;" vertex="1" parent="CV16CJgjCQMdgXZ5vd4G-70">
          <mxGeometry x="379.9999999999998" y="160" width="64.81818181818181" height="64.81818181818181" as="geometry" />
        </mxCell>
        <mxCell id="CV16CJgjCQMdgXZ5vd4G-78" value="" style="endArrow=none;html=1;rounded=0;entryX=0.256;entryY=0.943;entryDx=0;entryDy=0;entryPerimeter=0;exitX=0.81;exitY=0.098;exitDx=0;exitDy=0;exitPerimeter=0;" edge="1" parent="CV16CJgjCQMdgXZ5vd4G-70" source="CV16CJgjCQMdgXZ5vd4G-76" target="CV16CJgjCQMdgXZ5vd4G-75">
          <mxGeometry width="50" height="50" relative="1" as="geometry">
            <mxPoint x="116.99714285714282" y="160" as="sourcePoint" />
            <mxPoint x="161.99714285714282" y="70" as="targetPoint" />
          </mxGeometry>
        </mxCell>
        <mxCell id="CV16CJgjCQMdgXZ5vd4G-79" value="" style="endArrow=none;html=1;rounded=0;entryX=0.5;entryY=1;entryDx=0;entryDy=0;exitX=0.5;exitY=0;exitDx=0;exitDy=0;" edge="1" parent="CV16CJgjCQMdgXZ5vd4G-70" source="CV16CJgjCQMdgXZ5vd4G-73" target="CV16CJgjCQMdgXZ5vd4G-75">
          <mxGeometry width="50" height="50" relative="1" as="geometry">
            <mxPoint x="161.99999999999994" y="191" as="sourcePoint" />
            <mxPoint x="220.99999999999994" y="100" as="targetPoint" />
          </mxGeometry>
        </mxCell>
        <mxCell id="CV16CJgjCQMdgXZ5vd4G-80" value="F" style="ellipse;whiteSpace=wrap;html=1;aspect=fixed;fillColor=#99FF33;" vertex="1" parent="CV16CJgjCQMdgXZ5vd4G-70">
          <mxGeometry x="75.99999999999994" y="310" width="64.81818181818181" height="64.81818181818181" as="geometry" />
        </mxCell>
        <mxCell id="CV16CJgjCQMdgXZ5vd4G-81" value="" style="endArrow=none;html=1;rounded=0;entryX=0.5;entryY=1;entryDx=0;entryDy=0;exitX=0.5;exitY=0;exitDx=0;exitDy=0;" edge="1" parent="CV16CJgjCQMdgXZ5vd4G-70" source="CV16CJgjCQMdgXZ5vd4G-80" target="CV16CJgjCQMdgXZ5vd4G-76">
          <mxGeometry width="50" height="50" relative="1" as="geometry">
            <mxPoint x="108.20999999999998" y="310" as="sourcePoint" />
            <mxPoint x="108.20999999999998" y="225" as="targetPoint" />
          </mxGeometry>
        </mxCell>
        <mxCell id="CV16CJgjCQMdgXZ5vd4G-82" value="" style="endArrow=none;html=1;rounded=0;entryX=0.768;entryY=0.919;entryDx=0;entryDy=0;entryPerimeter=0;exitX=0.351;exitY=0.022;exitDx=0;exitDy=0;exitPerimeter=0;" edge="1" parent="CV16CJgjCQMdgXZ5vd4G-70" source="CV16CJgjCQMdgXZ5vd4G-83" target="CV16CJgjCQMdgXZ5vd4G-76">
          <mxGeometry width="50" height="50" relative="1" as="geometry">
            <mxPoint x="188.41000000000003" y="310" as="sourcePoint" />
            <mxPoint x="127.41000000000003" y="221" as="targetPoint" />
          </mxGeometry>
        </mxCell>
        <mxCell id="CV16CJgjCQMdgXZ5vd4G-83" value="G" style="ellipse;whiteSpace=wrap;html=1;aspect=fixed;fillColor=#99FF33;" vertex="1" parent="CV16CJgjCQMdgXZ5vd4G-70">
          <mxGeometry x="150.18000000000006" y="310" width="64.81818181818181" height="64.81818181818181" as="geometry" />
        </mxCell>
        <mxCell id="CV16CJgjCQMdgXZ5vd4G-84" value="I" style="ellipse;whiteSpace=wrap;html=1;aspect=fixed;fillColor=#99FF33;" vertex="1" parent="CV16CJgjCQMdgXZ5vd4G-70">
          <mxGeometry x="299.99999999999994" y="310" width="64.81818181818181" height="64.81818181818181" as="geometry" />
        </mxCell>
        <mxCell id="CV16CJgjCQMdgXZ5vd4G-85" value="J" style="ellipse;whiteSpace=wrap;html=1;aspect=fixed;fillColor=#99FF33;" vertex="1" parent="CV16CJgjCQMdgXZ5vd4G-70">
          <mxGeometry x="380" y="310" width="64.81818181818181" height="64.81818181818181" as="geometry" />
        </mxCell>
        <mxCell id="CV16CJgjCQMdgXZ5vd4G-86" value="K" style="ellipse;whiteSpace=wrap;html=1;aspect=fixed;fillColor=#99FF33;" vertex="1" parent="CV16CJgjCQMdgXZ5vd4G-70">
          <mxGeometry x="460" y="310" width="64.81818181818181" height="64.81818181818181" as="geometry" />
        </mxCell>
        <mxCell id="CV16CJgjCQMdgXZ5vd4G-87" value="" style="endArrow=none;html=1;rounded=0;entryX=0.5;entryY=1;entryDx=0;entryDy=0;exitX=0.5;exitY=0;exitDx=0;exitDy=0;" edge="1" parent="CV16CJgjCQMdgXZ5vd4G-70" source="CV16CJgjCQMdgXZ5vd4G-85" target="CV16CJgjCQMdgXZ5vd4G-77">
          <mxGeometry width="50" height="50" relative="1" as="geometry">
            <mxPoint x="368.12" y="310" as="sourcePoint" />
            <mxPoint x="368.12" y="225" as="targetPoint" />
          </mxGeometry>
        </mxCell>
        <mxCell id="CV16CJgjCQMdgXZ5vd4G-88" value="" style="endArrow=none;html=1;rounded=0;entryX=0.837;entryY=0.862;entryDx=0;entryDy=0;entryPerimeter=0;exitX=0.454;exitY=0.006;exitDx=0;exitDy=0;exitPerimeter=0;" edge="1" parent="CV16CJgjCQMdgXZ5vd4G-70" source="CV16CJgjCQMdgXZ5vd4G-86" target="CV16CJgjCQMdgXZ5vd4G-77">
          <mxGeometry width="50" height="50" relative="1" as="geometry">
            <mxPoint x="455" y="310" as="sourcePoint" />
            <mxPoint x="396" y="219" as="targetPoint" />
          </mxGeometry>
        </mxCell>
        <mxCell id="CV16CJgjCQMdgXZ5vd4G-89" value="" style="endArrow=none;html=1;rounded=0;entryX=0.178;entryY=0.872;entryDx=0;entryDy=0;entryPerimeter=0;exitX=0.512;exitY=0.004;exitDx=0;exitDy=0;exitPerimeter=0;" edge="1" parent="CV16CJgjCQMdgXZ5vd4G-70" source="CV16CJgjCQMdgXZ5vd4G-84" target="CV16CJgjCQMdgXZ5vd4G-77">
          <mxGeometry width="50" height="50" relative="1" as="geometry">
            <mxPoint x="280" y="310" as="sourcePoint" />
            <mxPoint x="346" y="218" as="targetPoint" />
          </mxGeometry>
        </mxCell>
        <mxCell id="CV16CJgjCQMdgXZ5vd4G-69" value="&lt;b&gt;2、删除有一个子节点的节点&lt;/b&gt;" style="text;strokeColor=none;align=center;fillColor=none;html=1;verticalAlign=middle;whiteSpace=wrap;rounded=0;" vertex="1" parent="1">
          <mxGeometry x="126" y="1220" width="160" height="30" as="geometry" />
        </mxCell>
        <mxCell id="CV16CJgjCQMdgXZ5vd4G-92" value="&lt;b&gt;3、删除有两个或三个子节点的节点&lt;/b&gt;" style="text;strokeColor=none;align=center;fillColor=none;html=1;verticalAlign=middle;whiteSpace=wrap;rounded=0;" vertex="1" parent="1">
          <mxGeometry x="151" y="1769" width="200" height="31" as="geometry" />
        </mxCell>
        <mxCell id="CV16CJgjCQMdgXZ5vd4G-93" value="C" style="group" vertex="1" connectable="0" parent="1">
          <mxGeometry x="151" y="1800" width="524.8181818181818" height="374.8181818181818" as="geometry" />
        </mxCell>
        <mxCell id="CV16CJgjCQMdgXZ5vd4G-96" value="C" style="ellipse;whiteSpace=wrap;html=1;aspect=fixed;fillColor=#CCFF99;" vertex="1" parent="CV16CJgjCQMdgXZ5vd4G-93">
          <mxGeometry x="224.99999999999994" y="160" width="64.81818181818181" height="64.81818181818181" as="geometry" />
        </mxCell>
        <mxCell id="CV16CJgjCQMdgXZ5vd4G-97" value="" style="endArrow=none;html=1;rounded=0;entryX=0.72;entryY=0.953;entryDx=0;entryDy=0;entryPerimeter=0;exitX=0.257;exitY=0.063;exitDx=0;exitDy=0;exitPerimeter=0;" edge="1" parent="CV16CJgjCQMdgXZ5vd4G-93" source="CV16CJgjCQMdgXZ5vd4G-100" target="CV16CJgjCQMdgXZ5vd4G-98">
          <mxGeometry width="50" height="50" relative="1" as="geometry">
            <mxPoint x="281.9971428571427" y="158" as="sourcePoint" />
            <mxPoint x="211.9971428571427" y="65" as="targetPoint" />
          </mxGeometry>
        </mxCell>
        <mxCell id="CV16CJgjCQMdgXZ5vd4G-98" value="A" style="ellipse;whiteSpace=wrap;html=1;aspect=fixed;fillColor=#E6FFCC;" vertex="1" parent="CV16CJgjCQMdgXZ5vd4G-93">
          <mxGeometry x="224.99999999999994" width="64.81818181818181" height="64.81818181818181" as="geometry" />
        </mxCell>
        <mxCell id="CV16CJgjCQMdgXZ5vd4G-99" value="E" style="ellipse;whiteSpace=wrap;html=1;aspect=fixed;fillColor=#CCFF99;" vertex="1" parent="CV16CJgjCQMdgXZ5vd4G-93">
          <mxGeometry x="75.99999999999994" y="160" width="64.81818181818181" height="64.81818181818181" as="geometry" />
        </mxCell>
        <mxCell id="CV16CJgjCQMdgXZ5vd4G-100" value="D" style="ellipse;whiteSpace=wrap;html=1;aspect=fixed;fillColor=#CCFF99;" vertex="1" parent="CV16CJgjCQMdgXZ5vd4G-93">
          <mxGeometry x="379.9999999999998" y="160" width="64.81818181818181" height="64.81818181818181" as="geometry" />
        </mxCell>
        <mxCell id="CV16CJgjCQMdgXZ5vd4G-101" value="" style="endArrow=none;html=1;rounded=0;entryX=0.256;entryY=0.943;entryDx=0;entryDy=0;entryPerimeter=0;exitX=0.81;exitY=0.098;exitDx=0;exitDy=0;exitPerimeter=0;" edge="1" parent="CV16CJgjCQMdgXZ5vd4G-93" source="CV16CJgjCQMdgXZ5vd4G-99" target="CV16CJgjCQMdgXZ5vd4G-98">
          <mxGeometry width="50" height="50" relative="1" as="geometry">
            <mxPoint x="116.99714285714282" y="160" as="sourcePoint" />
            <mxPoint x="161.99714285714282" y="70" as="targetPoint" />
          </mxGeometry>
        </mxCell>
        <mxCell id="CV16CJgjCQMdgXZ5vd4G-102" value="" style="endArrow=none;html=1;rounded=0;entryX=0.5;entryY=1;entryDx=0;entryDy=0;exitX=0.5;exitY=0;exitDx=0;exitDy=0;" edge="1" parent="CV16CJgjCQMdgXZ5vd4G-93" source="CV16CJgjCQMdgXZ5vd4G-96" target="CV16CJgjCQMdgXZ5vd4G-98">
          <mxGeometry width="50" height="50" relative="1" as="geometry">
            <mxPoint x="161.99999999999994" y="191" as="sourcePoint" />
            <mxPoint x="220.99999999999994" y="100" as="targetPoint" />
          </mxGeometry>
        </mxCell>
        <mxCell id="CV16CJgjCQMdgXZ5vd4G-103" value="F" style="ellipse;whiteSpace=wrap;html=1;aspect=fixed;fillColor=#99FF33;" vertex="1" parent="CV16CJgjCQMdgXZ5vd4G-93">
          <mxGeometry x="75.99999999999994" y="310" width="64.81818181818181" height="64.81818181818181" as="geometry" />
        </mxCell>
        <mxCell id="CV16CJgjCQMdgXZ5vd4G-104" value="" style="endArrow=none;html=1;rounded=0;entryX=0.5;entryY=1;entryDx=0;entryDy=0;exitX=0.5;exitY=0;exitDx=0;exitDy=0;" edge="1" parent="CV16CJgjCQMdgXZ5vd4G-93" source="CV16CJgjCQMdgXZ5vd4G-103" target="CV16CJgjCQMdgXZ5vd4G-99">
          <mxGeometry width="50" height="50" relative="1" as="geometry">
            <mxPoint x="108.20999999999998" y="310" as="sourcePoint" />
            <mxPoint x="108.20999999999998" y="225" as="targetPoint" />
          </mxGeometry>
        </mxCell>
        <mxCell id="CV16CJgjCQMdgXZ5vd4G-105" value="" style="endArrow=none;html=1;rounded=0;entryX=0.768;entryY=0.919;entryDx=0;entryDy=0;entryPerimeter=0;exitX=0.351;exitY=0.022;exitDx=0;exitDy=0;exitPerimeter=0;" edge="1" parent="CV16CJgjCQMdgXZ5vd4G-93" source="CV16CJgjCQMdgXZ5vd4G-106" target="CV16CJgjCQMdgXZ5vd4G-99">
          <mxGeometry width="50" height="50" relative="1" as="geometry">
            <mxPoint x="188.41000000000003" y="310" as="sourcePoint" />
            <mxPoint x="127.41000000000003" y="221" as="targetPoint" />
          </mxGeometry>
        </mxCell>
        <mxCell id="CV16CJgjCQMdgXZ5vd4G-106" value="G" style="ellipse;whiteSpace=wrap;html=1;aspect=fixed;fillColor=#99FF33;" vertex="1" parent="CV16CJgjCQMdgXZ5vd4G-93">
          <mxGeometry x="150.18000000000006" y="310" width="64.81818181818181" height="64.81818181818181" as="geometry" />
        </mxCell>
        <mxCell id="CV16CJgjCQMdgXZ5vd4G-107" value="I" style="ellipse;whiteSpace=wrap;html=1;aspect=fixed;fillColor=#99FF33;" vertex="1" parent="CV16CJgjCQMdgXZ5vd4G-93">
          <mxGeometry x="299.99999999999994" y="310" width="64.81818181818181" height="64.81818181818181" as="geometry" />
        </mxCell>
        <mxCell id="CV16CJgjCQMdgXZ5vd4G-108" value="J" style="ellipse;whiteSpace=wrap;html=1;aspect=fixed;fillColor=#99FF33;" vertex="1" parent="CV16CJgjCQMdgXZ5vd4G-93">
          <mxGeometry x="380" y="310" width="64.81818181818181" height="64.81818181818181" as="geometry" />
        </mxCell>
        <mxCell id="CV16CJgjCQMdgXZ5vd4G-109" value="K" style="ellipse;whiteSpace=wrap;html=1;aspect=fixed;fillColor=#99FF33;" vertex="1" parent="CV16CJgjCQMdgXZ5vd4G-93">
          <mxGeometry x="460" y="310" width="64.81818181818181" height="64.81818181818181" as="geometry" />
        </mxCell>
        <mxCell id="CV16CJgjCQMdgXZ5vd4G-110" value="" style="endArrow=none;html=1;rounded=0;entryX=0.5;entryY=1;entryDx=0;entryDy=0;exitX=0.5;exitY=0;exitDx=0;exitDy=0;" edge="1" parent="CV16CJgjCQMdgXZ5vd4G-93" source="CV16CJgjCQMdgXZ5vd4G-108" target="CV16CJgjCQMdgXZ5vd4G-100">
          <mxGeometry width="50" height="50" relative="1" as="geometry">
            <mxPoint x="368.12" y="310" as="sourcePoint" />
            <mxPoint x="368.12" y="225" as="targetPoint" />
          </mxGeometry>
        </mxCell>
        <mxCell id="CV16CJgjCQMdgXZ5vd4G-111" value="" style="endArrow=none;html=1;rounded=0;entryX=0.837;entryY=0.862;entryDx=0;entryDy=0;entryPerimeter=0;exitX=0.454;exitY=0.006;exitDx=0;exitDy=0;exitPerimeter=0;" edge="1" parent="CV16CJgjCQMdgXZ5vd4G-93" source="CV16CJgjCQMdgXZ5vd4G-109" target="CV16CJgjCQMdgXZ5vd4G-100">
          <mxGeometry width="50" height="50" relative="1" as="geometry">
            <mxPoint x="455" y="310" as="sourcePoint" />
            <mxPoint x="396" y="219" as="targetPoint" />
          </mxGeometry>
        </mxCell>
        <mxCell id="CV16CJgjCQMdgXZ5vd4G-112" value="" style="endArrow=none;html=1;rounded=0;entryX=0.178;entryY=0.872;entryDx=0;entryDy=0;entryPerimeter=0;exitX=0.512;exitY=0.004;exitDx=0;exitDy=0;exitPerimeter=0;" edge="1" parent="CV16CJgjCQMdgXZ5vd4G-93" source="CV16CJgjCQMdgXZ5vd4G-107" target="CV16CJgjCQMdgXZ5vd4G-100">
          <mxGeometry width="50" height="50" relative="1" as="geometry">
            <mxPoint x="280" y="310" as="sourcePoint" />
            <mxPoint x="346" y="218" as="targetPoint" />
          </mxGeometry>
        </mxCell>
        <mxCell id="CV16CJgjCQMdgXZ5vd4G-113" value="H" style="ellipse;whiteSpace=wrap;html=1;aspect=fixed;fillColor=#99FF33;" vertex="1" parent="CV16CJgjCQMdgXZ5vd4G-93">
          <mxGeometry x="225" y="310" width="64.81818181818181" height="64.81818181818181" as="geometry" />
        </mxCell>
        <mxCell id="CV16CJgjCQMdgXZ5vd4G-114" value="" style="endArrow=none;html=1;rounded=0;entryX=0.5;entryY=1;entryDx=0;entryDy=0;exitX=0.5;exitY=0;exitDx=0;exitDy=0;" edge="1" parent="CV16CJgjCQMdgXZ5vd4G-93" source="CV16CJgjCQMdgXZ5vd4G-113" target="CV16CJgjCQMdgXZ5vd4G-96">
          <mxGeometry width="50" height="50" relative="1" as="geometry">
            <mxPoint x="257.24" y="309.82" as="sourcePoint" />
            <mxPoint x="257.24" y="224.82" as="targetPoint" />
          </mxGeometry>
        </mxCell>
        <mxCell id="CV16CJgjCQMdgXZ5vd4G-115" value="&lt;div&gt;删除节点E&lt;/div&gt;&lt;div&gt;1、找到E的父节点B&lt;/div&gt;&lt;div&gt;2、将B的左子指针设为null&lt;/div&gt;" style="text;strokeColor=none;align=left;fillColor=none;html=1;verticalAlign=middle;whiteSpace=wrap;rounded=0;" vertex="1" parent="1">
          <mxGeometry x="151" y="1000" width="160" height="50" as="geometry" />
        </mxCell>
        <mxCell id="CV16CJgjCQMdgXZ5vd4G-116" value="&lt;div&gt;删除节点C&lt;/div&gt;&lt;div&gt;1、找到C的唯一子节点H&lt;/div&gt;&lt;div&gt;2、将A的中子指针指向H&lt;/div&gt;" style="text;strokeColor=none;align=left;fillColor=none;html=1;verticalAlign=middle;whiteSpace=wrap;rounded=0;" vertex="1" parent="1">
          <mxGeometry x="126" y="1640" width="150" height="50" as="geometry" />
        </mxCell>
        <mxCell id="CV16CJgjCQMdgXZ5vd4G-117" value="&lt;div&gt;删除节点B（有三个子节点E,F,G）&lt;/div&gt;&lt;div&gt;1、找到B的中序前驱（左子树的最右节点）或中序后继（右子树的最左节点）&lt;/div&gt;&lt;div&gt;2、这里我们选择中序前驱E,用E的值替换B的值&lt;/div&gt;&lt;div&gt;3、删除原来的E节点&lt;/div&gt;" style="text;strokeColor=none;align=left;fillColor=none;html=1;verticalAlign=middle;whiteSpace=wrap;rounded=0;" vertex="1" parent="1">
          <mxGeometry x="151" y="2190" width="420" height="70" as="geometry" />
        </mxCell>
      </root>
    </mxGraphModel>
  </diagram>
</mxfile>
